<svg data-v-423bf9ae="" xmlns="http://www.w3.org/2000/svg" viewBox="0 0 209 90" class="iconLeft"><!----><!----><!----><g data-v-423bf9ae="" id="81cb9e8f-8b52-431e-bc22-00feafc4a543" fill="#000000" transform="matrix(5.263158070853988,0,0,5.263158070853988,105.52631376357613,-10.473686819701804)"><path d="M2.04 16.24L2.04 16.24L2.04 16.24Q1.37 16.04 1.11 15.85L1.11 15.85L1.11 15.85Q0.85 15.65 0.85 15.36L0.85 15.36L0.85 15.36Q0.85 15.13 0.98 14.73L0.98 14.73L0.98 14.73Q1.11 14.32 1.35 13.77L1.35 13.77L1.35 13.77Q1.60 13.22 1.94 12.54L1.94 12.54L1.94 12.54Q2.28 11.87 2.72 11.10L2.72 11.10L2.72 11.10Q2.35 11.09 2.06 11.08L2.06 11.08L2.06 11.08Q1.78 11.07 1.60 11.07L1.60 11.07L1.60 11.07Q1.68 10.86 2.07 10.71L2.07 10.71L2.07 10.71Q2.46 10.56 3.11 10.44L3.11 10.44L3.11 10.44Q3.65 9.53 4.28 8.71L4.28 8.71L4.28 8.71Q4.90 7.88 5.53 7.19L5.53 7.19L5.53 7.19Q6.16 6.50 6.79 5.97L6.79 5.97L6.79 5.97Q7.42 5.45 7.99 5.14L7.99 5.14L7.99 5.14Q8.01 5.04 8.02 4.97L8.02 4.97L8.02 4.97Q8.02 4.90 8.02 4.87L8.02 4.87L8.02 4.87Q8.22 4.87 8.55 4.97L8.55 4.97L8.55 4.97Q8.88 5.07 9.19 5.21L9.19 5.21L9.19 5.21Q9.51 5.35 9.75 5.49L9.75 5.49L9.75 5.49Q10.00 5.64 10.02 5.74L10.02 5.74L10.02 5.74Q9.56 6.55 9.11 8.17L9.11 8.17L9.11 8.17Q8.67 9.79 8.37 12.04L8.37 12.04L8.37 12.04Q8.30 12.60 8.25 13.31L8.25 13.31L8.25 13.31Q8.20 14.03 8.20 14.91L8.20 14.91L8.20 14.91Q8.20 15.22 8.20 15.54L8.20 15.54L8.20 15.54Q8.20 15.86 8.23 16.21L8.23 16.21L8.23 16.21Q8.20 16.23 8.18 16.23L8.18 16.23L8.18 16.23Q8.15 16.23 8.06 16.23L8.06 16.23L8.06 16.23Q7.87 16.23 7.61 16.16L7.61 16.16L7.61 16.16Q7.35 16.10 7.11 16.01L7.11 16.01L7.11 16.01Q6.86 15.92 6.69 15.81L6.69 15.81L6.69 15.81Q6.51 15.69 6.47 15.61L6.47 15.61L6.47 15.61Q6.45 15.43 6.45 15.25L6.45 15.25L6.45 15.25Q6.45 15.08 6.45 14.88L6.45 14.88L6.45 14.88Q6.45 14.01 6.52 13.12L6.52 13.12L6.52 13.12Q6.58 12.22 6.73 11.27L6.73 11.27L6.73 11.27Q6.54 11.26 6.22 11.23L6.22 11.23L6.22 11.23Q5.89 11.21 5.50 11.20L5.50 11.20L5.50 11.20Q5.10 11.19 4.64 11.16L4.64 11.16L4.64 11.16Q4.19 11.14 3.75 11.13L3.75 11.13L3.75 11.13Q3.42 11.76 3.12 12.38L3.12 12.38L3.12 12.38Q2.83 13.01 2.62 13.64L2.62 13.64L2.62 13.64Q2.38 14.31 2.23 14.98L2.23 14.98L2.23 14.98Q2.09 15.65 2.04 16.24ZM7.45 7.83L7.45 7.83L7.45 7.83Q7.50 7.63 7.58 7.29L7.58 7.29L7.58 7.29Q7.66 6.94 7.73 6.57L7.73 6.57L7.73 6.57Q7.38 6.69 6.95 7.03L6.95 7.03L6.95 7.03Q6.52 7.36 6.07 7.86L6.07 7.86L6.07 7.86Q5.61 8.36 5.15 8.98L5.15 8.98L5.15 8.98Q4.68 9.60 4.24 10.30L4.24 10.30L4.24 10.30Q5.42 10.21 6.92 10.18L6.92 10.18L6.92 10.18Q7.03 9.59 7.16 9.01L7.16 9.01L7.16 9.01Q7.29 8.43 7.45 7.83ZM19.43 5.74L19.43 5.74L19.43 5.74Q19.47 5.98 19.49 6.07L19.49 6.07L19.49 6.07Q19.52 6.16 19.52 6.31L19.52 6.31L19.52 6.31Q19.52 6.78 19.31 7.18L19.31 7.18L19.31 7.18Q19.11 7.57 18.76 7.74L18.76 7.74L18.76 7.74Q18.48 7.36 18.07 7.09L18.07 7.09L18.07 7.09Q17.67 6.82 17.18 6.64L17.18 6.64L17.18 6.64Q16.70 6.47 16.18 6.38L16.18 6.38L16.18 6.38Q15.67 6.30 15.18 6.30L15.18 6.30L15.18 6.30Q14.69 6.30 14.26 6.38L14.26 6.38L14.26 6.38Q13.83 6.45 13.50 6.59L13.50 6.59L13.50 6.59Q13.17 6.72 12.98 6.92L12.98 6.92L12.98 6.92Q12.80 7.11 12.80 7.36L12.80 7.36L12.80 7.36Q12.84 7.67 13.17 7.99L13.17 7.99L13.17 7.99Q13.51 8.30 14 8.60L14 8.60L14 8.60Q14.49 8.90 15.08 9.20L15.08 9.20L15.08 9.20Q15.68 9.49 16.25 9.76L16.25 9.76L16.25 9.76Q16.97 10.09 17.49 10.38L17.49 10.38L17.49 10.38Q18.00 10.67 18.34 11.01L18.34 11.01L18.34 11.01Q18.68 11.35 18.84 11.79L18.84 11.79L18.84 11.79Q19.01 12.22 19.01 12.84L19.01 12.84L19.01 12.84Q19.01 13.55 18.77 14.18L18.77 14.18L18.77 14.18Q18.54 14.80 18.08 15.26L18.08 15.26L18.08 15.26Q17.63 15.72 16.98 15.98L16.98 15.98L16.98 15.98Q16.34 16.24 15.54 16.24L15.54 16.24L15.54 16.24Q14.76 16.24 13.85 16.00L13.85 16.00L13.85 16.00Q12.94 15.76 12.14 15.35L12.14 15.35L12.14 15.35Q11.35 14.94 10.83 14.40L10.83 14.40L10.83 14.40Q10.30 13.86 10.30 13.26L10.30 13.26L10.30 13.26Q10.30 12.98 10.46 12.54L10.46 12.54L10.46 12.54Q10.63 12.11 11.05 11.63L11.05 11.63L11.05 11.63Q11.09 12.05 11.50 12.63L11.50 12.63L11.50 12.63Q11.91 13.20 12.74 13.69L12.74 13.69L12.74 13.69Q13.51 14.14 14.33 14.34L14.33 14.34L14.33 14.34Q15.15 14.55 15.86 14.55L15.86 14.55L15.86 14.55Q16.65 14.55 17.14 14.35L17.14 14.35L17.14 14.35Q17.63 14.15 17.91 13.88L17.91 13.88L17.91 13.88Q18.19 13.61 18.30 13.33L18.30 13.33L18.30 13.33Q18.41 13.05 18.42 12.88L18.42 12.88L18.42 12.88Q18.41 12.60 18.16 12.34L18.16 12.34L18.16 12.34Q17.92 12.08 17.51 11.84L17.51 11.84L17.51 11.84Q17.09 11.59 16.55 11.34L16.55 11.34L16.55 11.34Q16.00 11.09 15.41 10.84L15.41 10.84L15.41 10.84Q14.53 10.44 13.89 10.10L13.89 10.10L13.89 10.10Q13.26 9.76 12.84 9.40L12.84 9.40L12.84 9.40Q12.43 9.04 12.24 8.65L12.24 8.65L12.24 8.65Q12.05 8.26 12.05 7.76L12.05 7.76L12.05 7.76Q12.05 6.97 12.53 6.27L12.53 6.27L12.53 6.27Q13.01 5.57 13.90 5.21L13.90 5.21L13.90 5.21Q14.35 5.01 14.86 4.93L14.86 4.93L14.86 4.93Q15.37 4.84 15.86 4.84L15.86 4.84L15.86 4.84Q16.79 4.84 17.67 5.10L17.67 5.10L17.67 5.10Q18.55 5.35 19.43 5.74Z"></path></g><!----><g data-v-423bf9ae="" id="df10f7b6-823f-4c50-86d4-27904be27406" transform="matrix(2.8125,0,0,2.8125,0,0)" stroke="none" fill="#000000"><path d="M16 32c8.837 0 16-7.163 16-16S24.837 0 16 0 0 7.163 0 16s7.163 16 16 16zM14.817 6.421h2v8.886h8.887v2H14.817V6.421zm-5.959.437h2v14.283h14.283v2H8.858V6.858z"></path></g><!----></svg>